name Walk3.mot
datacolumns 19
datarows 12
range 2.42100000 2.43200000
endheader

                time	   L_ground_force_vx	   L_ground_force_vy	   L_ground_force_vz	   L_ground_force_px	   L_ground_force_py	   L_ground_force_pz	   R_ground_force_vx	   R_ground_force_vy	   R_ground_force_vz	   R_ground_force_px	   R_ground_force_py	   R_ground_force_pz	   L_ground_torque_x	   L_ground_torque_y	   L_ground_torque_z	   R_ground_torque_x	   R_ground_torque_y	   R_ground_torque_z	
          2.42100000	          0.00000000	          0.00000000	          0.00000000	          0.00000000	          0.00000000	          0.00000000	         12.82283949	         52.73584489	         11.36249619	          0.53791794	          0.00000000	          0.19690075	          0.00000000	          0.00000000	          0.00000000	          0.00000000	         -2.27528728	          0.00000000	
          2.42200000	          0.00000000	          0.00000000	          0.00000000	          0.00000000	          0.00000000	          0.00000000	         11.75228204	         49.56884834	         10.84347245	          0.53921722	          0.00000000	          0.19633454	          0.00000000	          0.00000000	          0.00000000	          0.00000000	         -2.02637330	          0.00000000	
          2.42300000	          0.00000000	          0.00000000	          0.00000000	          0.00000000	          0.00000000	          0.00000000	         10.73802294	         46.56578880	         10.33333495	          0.54030973	          0.00000000	          0.19547514	          0.00000000	          0.00000000	          0.00000000	          0.00000000	         -1.79698800	          0.00000000	
          2.42400000	          0.00000000	          0.00000000	          0.00000000	          0.00000000	          0.00000000	          0.00000000	          9.77111229	         43.72823313	          9.83325345	          0.54179902	          0.00000000	          0.19462807	          0.00000000	          0.00000000	          0.00000000	          0.00000000	         -1.58488346	          0.00000000	
          2.42500000	          0.00000000	          0.00000000	          0.00000000	          0.00000000	          0.00000000	          0.00000000	          8.84968050	         41.04992980	          9.34755291	          0.54394193	          0.00000000	          0.19394618	          0.00000000	          0.00000000	          0.00000000	          0.00000000	         -1.38402343	          0.00000000	
          2.42600000	          0.00000000	          0.00000000	          0.00000000	          0.00000000	          0.00000000	          0.00000000	          7.97960940	         38.52629324	          8.88148996	          0.54630912	          0.00000000	          0.19345253	          0.00000000	          0.00000000	          0.00000000	          0.00000000	         -1.18899157	          0.00000000	
          2.42700000	          0.00000000	          0.00000000	          0.00000000	          0.00000000	          0.00000000	          0.00000000	          7.17061244	         36.18445759	          8.44098132	          0.54828540	          0.00000000	          0.19325316	          0.00000000	          0.00000000	          0.00000000	          0.00000000	         -0.99582442	          0.00000000	
          2.42800000	          0.00000000	          0.00000000	          0.00000000	          0.00000000	          0.00000000	          0.00000000	          6.42520391	         34.07105507	          8.03429531	          0.54945447	          0.00000000	          0.19352963	          0.00000000	          0.00000000	          0.00000000	          0.00000000	         -0.80514258	          0.00000000	
          2.42900000	          0.00000000	          0.00000000	          0.00000000	          0.00000000	          0.00000000	          0.00000000	          5.73261442	         32.19575412	          7.67405673	          0.54965500	          0.00000000	          0.19432157	          0.00000000	          0.00000000	          0.00000000	          0.00000000	         -0.62415927	          0.00000000	
          2.43000000	          0.00000000	          0.00000000	          0.00000000	          0.00000000	          0.00000000	          0.00000000	          5.07597253	         30.49005785	          7.36467549	          0.54902475	          0.00000000	          0.19556363	          0.00000000	          0.00000000	          0.00000000	          0.00000000	         -0.46428151	          0.00000000	
          2.43100000	          0.00000000	          0.00000000	          0.00000000	          0.00000000	          0.00000000	          0.00000000	          4.44122123	         28.79636297	          7.07819465	          0.54782938	          0.00000000	          0.19726063	          0.00000000	          0.00000000	          0.00000000	          0.00000000	         -0.33612866	          0.00000000	
          2.43200000	          0.00000000	          0.00000000	          0.00000000	          0.00000000	          0.00000000	          0.00000000	          3.81853225	         26.88376652	          6.74870373	          0.54621760	          0.00000000	          0.19927986	          0.00000000	          0.00000000	          0.00000000	          0.00000000	         -0.24222500	          0.00000000	
